<svg xmlns="http://www.w3.org/2000/svg" width="205.859" height="69.981" viewBox="0 0 205.859 69.981">
  <g id="Group_7847" data-name="Group 7847" transform="translate(-92.865 -113.403)">
    <path id="glomil_siyah_02" d="M65.565,38.147a7.458,7.458,0,0,0-3.141-3.141,10.534,10.534,0,0,0-4.81-1.08,10.2,10.2,0,0,0-7.755,3.141,11.792,11.792,0,0,0-2.945,8.443c0,3.73.982,6.675,3.043,8.737A11.253,11.253,0,0,0,58.3,57.388a9.856,9.856,0,0,0,6.185-1.865,11.108,11.108,0,0,0,3.73-5.3H55.65V42.958h21.6v9.228a18.142,18.142,0,0,1-3.73,6.872,20.75,20.75,0,0,1-6.675,5.2,21.439,21.439,0,0,1-9.13,1.963,22,22,0,0,1-10.8-2.651,18.958,18.958,0,0,1-7.363-7.363A21.358,21.358,0,0,1,36.9,45.51a22,22,0,0,1,2.651-10.8,18.958,18.958,0,0,1,7.363-7.363,21.358,21.358,0,0,1,10.7-2.651,21.122,21.122,0,0,1,12.369,3.534,16.653,16.653,0,0,1,6.675,9.817ZM91.58,58.272h12.958v7.657H81.665V25.189H91.58ZM201.136,25.189v40.74h-9.915V41.485l-9.13,24.444h-8.05l-9.13-24.444V65.929H155V25.189h11.682l11.388,28.174,11.289-28.174ZM229.8,58.272h12.958v7.657H219.886V25.189H229.8ZM205.553,25.189v40.74h9.915V25.189Zm8.737,4.712-2.258,1.571v.1l.884,2.651a.1.1,0,0,1-.1.1l-2.258-1.571h-.1L208.2,34.319c-.1,0-.1,0-.1-.1l.884-2.651v-.1L206.731,29.9c-.1,0,0-.1,0-.1h2.847l.884-2.651c0-.1.1-.1.1,0l.884,2.651h2.847S214.291,29.8,214.291,29.9ZM108.956,45.8a20.866,20.866,0,0,0,20.91,20.615,21.187,21.187,0,0,0,10.8-2.945,84.679,84.679,0,0,1-17.081-7.559A91.535,91.535,0,0,1,108.956,45.8Zm39.758,8.443a21.435,21.435,0,0,0,1.865-8.737,20.9,20.9,0,0,0-36.028-14.431c-6.872-2.651-11.977-3.24-13.449-.982-2.454,3.829,6.97,14.431,21.2,23.659s27.782,13.645,30.236,9.915C154.015,61.806,152.346,58.37,148.714,54.247Zm1.571,5.2c-1.767,2.651-13.056-1.571-25.229-9.522S104.44,33.435,106.109,30.686c.884-1.276,3.927-.982,8.344.687A17.34,17.34,0,0,0,111.9,34.81c1.963,3.829,8.148,9.915,16.1,15.511,6.675,4.81,13.056,8.148,17.18,9.326a19.721,19.721,0,0,0,3.436-5.007C150.187,56.9,150.874,58.566,150.285,59.45Z" transform="translate(55.965 88.803)"/>
    <path id="Path_167" data-name="Path 167" d="M-189.951-7.332v-9.756h-3.224v-2.354h8.972v2.354h-3.258v9.756Zm7.539,0v-12.11h7.539v2.354h-5.066v2.49h4.042v2.354h-4.042v2.558h5.066v2.354Zm17.483,0-5.253-5.492v5.492h-2.456v-12.11h2.456v5.134l4.366-5.134h3.053l-4.981,5.816,6.021,6.294Zm15.027,0h-2.132l-6.209-7.9v7.9h-2.473v-12.11h2.132l6.209,7.9v-7.9h2.473Zm5.646-3.309a3.621,3.621,0,0,0,2.678,1.126,3.58,3.58,0,0,0,2.669-1.134,3.789,3.789,0,0,0,1.1-2.738,3.789,3.789,0,0,0-1.1-2.738,3.58,3.58,0,0,0-2.669-1.134,3.58,3.58,0,0,0-2.669,1.134,3.789,3.789,0,0,0-1.1,2.738A3.834,3.834,0,0,0-144.257-10.641Zm7.1,1.689a6.017,6.017,0,0,1-4.418,1.825,6.031,6.031,0,0,1-4.426-1.834,6.031,6.031,0,0,1-1.834-4.426,6.031,6.031,0,0,1,1.834-4.426,6.031,6.031,0,0,1,4.426-1.834,6.031,6.031,0,0,1,4.426,1.834,6.031,6.031,0,0,1,1.834,4.426A6.045,6.045,0,0,1-137.161-8.952Zm3.906,1.62v-12.11h2.473v9.756h5.185v2.354Zm11.769-3.309a3.621,3.621,0,0,0,2.678,1.126,3.58,3.58,0,0,0,2.669-1.134,3.789,3.789,0,0,0,1.1-2.738,3.789,3.789,0,0,0-1.1-2.738,3.58,3.58,0,0,0-2.669-1.134,3.58,3.58,0,0,0-2.669,1.134,3.789,3.789,0,0,0-1.1,2.738A3.834,3.834,0,0,0-121.486-10.641Zm7.1,1.689a6.017,6.017,0,0,1-4.418,1.825,6.031,6.031,0,0,1-4.426-1.834,6.031,6.031,0,0,1-1.834-4.426,6.031,6.031,0,0,1,1.834-4.426,6.031,6.031,0,0,1,4.426-1.834,6.031,6.031,0,0,1,4.426,1.834,6.031,6.031,0,0,1,1.834,4.426A6.045,6.045,0,0,1-114.391-8.952Zm6.533,1.825a4.082,4.082,0,0,1-2.746-.947,3.4,3.4,0,0,1-1.109-2.738h2.439a1.3,1.3,0,0,0,.4,1.023,1.466,1.466,0,0,0,1.015.358,1.488,1.488,0,0,0,1.015-.35,1.3,1.3,0,0,0,.4-1.032v-8.631h2.456v8.8A3.163,3.163,0,0,1-105.1-8.014,4.283,4.283,0,0,1-107.858-7.127Zm6.567-.2v-12.11h2.473v12.11Zm1.245-13.168a1.252,1.252,0,0,1-.921-.375,1.232,1.232,0,0,1-.375-.9,1.252,1.252,0,0,1,.375-.921,1.252,1.252,0,0,1,.921-.375,1.232,1.232,0,0,1,.9.375,1.252,1.252,0,0,1,.375.921,1.232,1.232,0,0,1-.375.9A1.232,1.232,0,0,1-100.046-20.5Zm6.123,13.168,5.219-12.11h2.2l5.236,12.11H-83.86l-1.177-2.763H-90.2l-1.16,2.763Zm6.311-8.852-1.672,3.923h3.326Zm8.8,8.989a1.647,1.647,0,0,1-1.211-.495A1.647,1.647,0,0,1-80.517-8.9a1.647,1.647,0,0,1,.495-1.211,1.647,1.647,0,0,1,1.211-.495,1.641,1.641,0,0,1,1.2.5,1.641,1.641,0,0,1,.5,1.2,1.641,1.641,0,0,1-.5,1.2A1.641,1.641,0,0,1-78.811-7.2Zm7.71.068a4.661,4.661,0,0,1-3.326-1.185,3.935,3.935,0,0,1-1.33-2.772h2.473a1.844,1.844,0,0,0,.733,1.237,2.4,2.4,0,0,0,1.45.435,2.134,2.134,0,0,0,1.245-.333,1.038,1.038,0,0,0,.478-.9q0-1.006-1.62-1.467l-1.279-.375a4.928,4.928,0,0,1-2.32-1.33,3.254,3.254,0,0,1-.853-2.251,3.29,3.29,0,0,1,1.109-2.618,4.339,4.339,0,0,1,2.951-.964,4.17,4.17,0,0,1,3.019,1.117,3.727,3.727,0,0,1,1.228,2.567H-69.6a1.768,1.768,0,0,0-.682-1.058,1.908,1.908,0,0,0-1.109-.341,1.934,1.934,0,0,0-1.117.3.991.991,0,0,0-.452.827,1.093,1.093,0,0,0,.358.887,2.9,2.9,0,0,0,1.16.563l1.416.392q3.138.87,3.138,3.667a3.272,3.272,0,0,1-1.168,2.584A4.476,4.476,0,0,1-71.1-7.127Zm-2.047,3.275V-4.927a2.6,2.6,0,0,0,1.3.29q1.057,0,1.057-.563,0-.478-.75-.478a1.479,1.479,0,0,0-.7.171l-.6-.324.938-1.552h1.058l-.529.87a3.415,3.415,0,0,1,.8-.119,1.522,1.522,0,0,1,1.04.358,1.246,1.246,0,0,1,.409.989,1.422,1.422,0,0,1-.7,1.211,2.8,2.8,0,0,1-1.62.478A4.727,4.727,0,0,1-73.148-3.852ZM-63.767-7.2a1.647,1.647,0,0,1-1.211-.495A1.647,1.647,0,0,1-65.473-8.9a1.647,1.647,0,0,1,.495-1.211,1.647,1.647,0,0,1,1.211-.495,1.641,1.641,0,0,1,1.2.5,1.641,1.641,0,0,1,.5,1.2,1.641,1.641,0,0,1-.5,1.2A1.641,1.641,0,0,1-63.767-7.2Z" transform="translate(360.103 186.98)"/>
  </g>
</svg>
